<svg width="419" height="95" viewBox="0 0 419 95" fill="none" xmlns="http://www.w3.org/2000/svg">
<path fill-rule="evenodd" clip-rule="evenodd" d="M338.366 22.6364V75H357.185V22.6364H338.366ZM341.23 14.6591C343.048 16.3409 345.23 17.1818 347.776 17.1818C350.344 17.1818 352.526 16.3409 354.321 14.6591C356.139 12.9773 357.048 10.9545 357.048 8.59091C357.048 6.22726 356.139 4.20453 354.321 2.52274C352.526 0.840912 350.344 0 347.776 0C345.23 0 343.048 0.840912 341.23 2.52274C339.412 4.20453 338.503 6.22726 338.503 8.59091C338.503 10.9545 339.412 12.9773 341.23 14.6591ZM390.636 38.8636L383 22.6364H364.182L378.091 48.8182L363.227 75H382.045L390.636 58.3636L399.5 75H418.045L403.318 48.8182L417.364 22.6364H398.682L390.636 38.8636ZM248.085 75V22.6364H265.949V32.5909H266.494C267.585 29.3182 269.449 26.7273 272.085 24.8182C274.722 22.9091 277.858 21.9545 281.494 21.9545C285.176 21.9545 288.347 22.9318 291.006 24.8864C293.665 26.8182 295.267 29.3864 295.812 32.5909H296.358C297.244 29.3864 299.131 26.8182 302.017 24.8864C304.903 22.9318 308.29 21.9545 312.176 21.9545C317.199 21.9545 321.267 23.5682 324.381 26.7954C327.517 30.0227 329.085 34.3182 329.085 39.6818V75H310.267V44.4545C310.267 42.1591 309.688 40.3636 308.528 39.0682C307.369 37.75 305.812 37.0909 303.858 37.0909C301.926 37.0909 300.392 37.75 299.256 39.0682C298.142 40.3636 297.585 42.1591 297.585 44.4545V75H279.585V44.4545C279.585 42.1591 279.006 40.3636 277.847 39.0682C276.688 37.75 275.131 37.0909 273.176 37.0909C271.881 37.0909 270.767 37.3864 269.835 37.9773C268.903 38.5682 268.176 39.4204 267.653 40.5341C267.153 41.625 266.903 42.9318 266.903 44.4545V75H248.085ZM197.094 74.1818C199.662 75.2727 202.616 75.8182 205.957 75.8182C208.23 75.8182 210.31 75.5454 212.196 75C214.105 74.4545 215.798 73.5795 217.276 72.375C218.776 71.1704 220.048 69.5909 221.094 67.6364H221.503V75H239.094V39.1364C239.094 36.7045 238.537 34.4545 237.423 32.3864C236.332 30.2954 234.741 28.4773 232.651 26.9318C230.56 25.3636 228.026 24.1477 225.048 23.2841C222.071 22.3977 218.707 21.9545 214.957 21.9545C209.753 21.9545 205.412 22.7727 201.935 24.4091C198.457 26.0227 195.81 28.1818 193.991 30.8864C192.196 33.5682 191.185 36.5 190.957 39.6818H208.276C208.503 38.0682 209.173 36.875 210.287 36.1023C211.423 35.3068 212.889 34.9091 214.685 34.9091C216.321 34.9091 217.662 35.2727 218.707 36C219.753 36.7273 220.276 37.7727 220.276 39.1364V39.2727C220.276 40.2727 219.878 41.0795 219.082 41.6932C218.287 42.2841 216.991 42.75 215.196 43.0909C213.423 43.4091 211.071 43.6818 208.139 43.9091C205.435 44.1136 202.912 44.5568 200.571 45.2386C198.253 45.9204 196.219 46.9091 194.469 48.2045C192.719 49.5 191.355 51.1705 190.378 53.2159C189.401 55.2386 188.912 57.6818 188.912 60.5454C188.912 64.0227 189.639 66.8864 191.094 69.1364C192.548 71.3864 194.548 73.0682 197.094 74.1818ZM216.116 63.0682C214.866 63.6591 213.526 63.9545 212.094 63.9545C210.503 63.9545 209.196 63.5682 208.173 62.7954C207.151 62.0227 206.639 60.9091 206.639 59.4545C206.639 58.5454 206.855 57.7272 207.287 57C207.741 56.25 208.423 55.625 209.332 55.125C210.264 54.6022 211.457 54.2272 212.912 54C213.662 53.8864 214.378 53.7614 215.06 53.625C215.764 53.4886 216.423 53.3409 217.037 53.1818C217.673 53.0227 218.264 52.8522 218.81 52.6704C219.378 52.4886 219.912 52.2955 220.412 52.0909V56.4545C220.412 58.0454 220.014 59.3977 219.219 60.5114C218.423 61.625 217.389 62.4772 216.116 63.0682ZM148.122 45.5454V75H129.304V22.6364H147.168V32.5909H147.713C148.849 29.2727 150.849 26.6704 153.713 24.7841C156.599 22.8977 159.963 21.9545 163.804 21.9545C167.509 21.9545 170.724 22.8068 173.452 24.5114C176.202 26.1932 178.327 28.5114 179.827 31.4659C181.349 34.4204 182.099 37.7954 182.077 41.5909V75H163.259V45.5454C163.281 42.9545 162.622 40.9204 161.281 39.4432C159.963 37.9659 158.122 37.2273 155.759 37.2273C154.213 37.2273 152.861 37.5682 151.702 38.25C150.565 38.9091 149.69 39.8636 149.077 41.1136C148.463 42.3409 148.145 43.8182 148.122 45.5454ZM76.4631 94.125C78.4176 94.4659 80.4744 94.6364 82.6335 94.6364C87.0199 94.6364 90.679 93.9659 93.6108 92.625C96.5426 91.2841 98.9062 89.4545 100.702 87.1364C102.52 84.8409 103.906 82.25 104.861 79.3636L123.952 22.6364H104.179L95.5881 58.9091H95.0426L86.5881 22.6364H66.9517L85.3608 77.3182L84.9517 78.2727C84.5426 79.2273 83.8722 79.875 82.9404 80.2159C82.0312 80.5568 80.929 80.6477 79.6335 80.4886C78.3608 80.3295 76.9517 79.9772 75.4062 79.4318L71.3154 92.7955C72.7926 93.3636 74.5085 93.8068 76.4631 94.125ZM27.3636 75H0.5V5.18182H27.0909C34.2727 5.18182 40.4773 6.57956 45.7045 9.375C50.9545 12.1477 55 16.1477 57.8409 21.375C60.7045 26.5796 62.1364 32.8182 62.1364 40.0909C62.1364 47.3636 60.7159 53.6136 57.875 58.8409C55.0341 64.0455 51.0114 68.0455 45.8068 70.8409C40.6023 73.6136 34.4545 75 27.3636 75ZM19.4545 58.9091H26.6818C30.1364 58.9091 33.0795 58.3523 35.5114 57.2386C37.9659 56.125 39.8295 54.2045 41.1023 51.4773C42.3977 48.75 43.0455 44.9546 43.0455 40.0909C43.0455 35.2273 42.3864 31.4318 41.0682 28.7046C39.7727 25.9773 37.8636 24.0568 35.3409 22.9432C32.8409 21.8296 29.7727 21.2727 26.1364 21.2727H19.4545V58.9091ZM419 79H248V90H419V79Z" fill="black"/>
</svg>
